<?xml version="1.0" encoding="UTF-8"?>
<svg viewBox="0 0 744.09448819 1052.3622047" xmlns="http://www.w3.org/2000/svg" xmlns:xlink="http://www.w3.org/1999/xlink">
 <defs>
  <clipPath id="x">
   <path d="m402.31 332.81c-10.59-0.0219-22.122 0.83449-34.062 2.6562-39.464 6.0213-71.236 20.766-79.594 35.562h-78.562v327.19h309.97v-327.19h-69.156c6.3111-5.6385 9.5125-11.513 8.6562-17.125-1.9989-13.101-25.479-21.028-57.25-21.094z"/>
  </clipPath>
  <filter id="j">
   <feGaussianBlur stdDeviation="2.94"/>
  </filter>
  <filter id="t">
   <feGaussianBlur stdDeviation="1.66456"/>
  </filter>
  <filter id="w">
   <feGaussianBlur stdDeviation=".12538"/>
  </filter>
  <filter id="v">
   <feGaussianBlur stdDeviation=".13892"/>
  </filter>
  <filter id="u">
   <feGaussianBlur stdDeviation=".14366"/>
  </filter>
  <filter id="c">
   <feGaussianBlur stdDeviation=".3568"/>
  </filter>
  <filter id="b">
   <feGaussianBlur stdDeviation=".1784"/>
  </filter>
  <filter id="i">
   <feGaussianBlur stdDeviation=".88823"/>
  </filter>
  <filter id="r">
   <feGaussianBlur stdDeviation=".30566"/>
  </filter>
  <filter id="s" x="-.02857" y="-.14995" width="1.0572" height="1.2999">
   <feGaussianBlur stdDeviation="1.34238"/>
  </filter>
  <linearGradient id="d">
   <stop stop-color="#fff" offset="0"/>
   <stop stop-color="#fff" stop-opacity="0" offset="1"/>
  </linearGradient>
  <linearGradient id="h">
   <stop offset="0"/>
   <stop stop-opacity="0" offset="1"/>
  </linearGradient>
  <linearGradient id="a" x1="612.17" x2="612.2" y1="472.63" y2="514.47" gradientUnits="userSpaceOnUse">
   <stop stop-color="#8a0" offset="0"/>
   <stop stop-color="#8a0" stop-opacity="0" offset="1"/>
  </linearGradient>
  <linearGradient id="p" x1="219.51" x2="340.84" y1="319.55" y2="304.18" gradientUnits="userSpaceOnUse">
   <stop offset="0"/>
   <stop stop-color="#333" offset="1"/>
  </linearGradient>
  <linearGradient id="o" x1="220.04" x2="421.76" y1="310.94" y2="319.79" gradientUnits="userSpaceOnUse">
   <stop offset="0"/>
   <stop stop-color="#999" offset="1"/>
  </linearGradient>
  <linearGradient id="l" x1="132.2" x2="127.02" y1="490.6" y2="512.5" gradientUnits="userSpaceOnUse">
   <stop stop-color="#808080" offset="0"/>
   <stop stop-color="#fff" offset="1"/>
  </linearGradient>
  <linearGradient id="q" x1="405.09" x2="412.21" y1="419.82" y2="390.43" gradientUnits="userSpaceOnUse" xlink:href="#h"/>
  <linearGradient id="n" x1="172.63" x2="342.51" y1="311.74" y2="264.68" gradientUnits="userSpaceOnUse" xlink:href="#d"/>
  <linearGradient id="m" x1="559.25" x2="358.43" y1="210.38" y2="260.33" gradientUnits="userSpaceOnUse" xlink:href="#d"/>
  <linearGradient id="g" x1="571.25" x2="574.6" y1="461.91" y2="476.89" gradientUnits="userSpaceOnUse" xlink:href="#d"/>
  <radialGradient id="f" cx="-34.073" cy="528.71" r="81.204" gradientTransform="matrix(2.0985 -1.4854 1.2332 1.7422 -618.89 -443.89)" gradientUnits="userSpaceOnUse">
   <stop stop-color="#fff" offset="0"/>
   <stop stop-color="#b3b3b3" offset="1"/>
  </radialGradient>
  <radialGradient id="e" cx="646.59" cy="426.25" r="13.311" gradientUnits="userSpaceOnUse">
   <stop stop-color="#4d4d4d" offset="0"/>
   <stop stop-color="#4d4d4d" stop-opacity="0" offset="1"/>
  </radialGradient>
  <radialGradient id="k" cx="-252.5" cy="630.36" r="61.5" gradientTransform="matrix(1 0 0 .39024 0 384.37)" gradientUnits="userSpaceOnUse" xlink:href="#h"/>
 </defs>
 <path d="m564.64 431.58c-6.5557 13.374-8.3958 32.72-19.182 39.646-12.219 7.8466-25.415 12.029-38.815 15.177 2.6872-13.89 4.3424-27.046 10.026-40.985 1.764-4.3261 7.1261-4.186 10.864-6.4927-4.0178 1.3725-9.6429 0.13902-12.379 4.5449-8.0575 12.973-12.494 29.589-19.053 45.206-10.851 2.2347-21.683 4.2581-32.141 7.3449l2.8692 12.458c16.732-7.2752 34.375-11.564 51.001-18.139 12.16 3.3678 26.062 8.5828 36.526 8.1565 4.9451-0.20146 8.0541-6.8709 11.831-10.267-4.2261 2.4164-7.8963 8.0186-12.154 7.142-11.215-2.3091-17.221-5.1486-25.823-9.5362 6.6445-3.2048 13.038-7.0054 19.053-11.727 10.903-8.5599 11.743-28.503 17.376-42.527z" fill-rule="evenodd"/>
 <path d="m564.58 432.03c-6.5326 13.179-8.3662 32.244-19.114 39.069-12.176 7.7324-25.325 11.854-38.678 14.956 2.6777-13.688 4.3271-26.653 9.9907-40.389 1.7577-4.2632 7.101-4.1251 10.826-6.3983-4.0036 1.3526-9.6089 0.137-12.336 4.4788-8.029 12.784-12.449 29.158-18.985 44.548-10.813 2.2022-21.606 4.1961-32.028 7.238l2.8591 12.277c16.673-7.1694 34.254-11.396 50.821-17.875 12.117 3.3188 25.97 8.4579 36.397 8.0378 4.9276-0.19853 8.0257-6.771 11.79-10.117-4.2112 2.3812-7.8684 7.9019-12.111 7.0381-11.175-2.2755-17.161-5.0737-25.732-9.3974 6.6211-3.1581 12.992-6.9034 18.985-11.557 10.864-8.4354 11.701-28.088 17.315-41.909z" fill="#520" fill-rule="evenodd" filter="url(#i)"/>
 <path d="m284.13 245s9.8857-16.057 63.273-22.352 56.813 7.3306 56.813 7.3306c-3.9062 14.267-4.795 36.142 11.667 66.144l14.953 15.318-130.22 15.745 0.88875-18.989c-4.1568-37.119 0.53597-42.699-17.373-63.197z"/>
 <path d="m284.13 245s9.8857-16.057 63.273-22.352 56.813 7.3306 56.813 7.3306c-3.9062 14.267-4.795 36.142 11.667 66.144l14.953 15.318-130.22 15.745 0.88875-18.989c-4.1568-37.119 0.53597-42.699-17.373-63.197z" fill="url(#n)"/>
 <path d="m284.85 244.28s9.8857-16.057 63.273-22.352 56.813 7.3306 56.813 7.3306c-3.9062 14.267-4.795 36.142 11.667 66.144l14.953 15.318-130.22 15.745 0.88875-18.989c-4.1568-37.119 0.53597-42.699-17.373-63.197z" fill="url(#m)"/>
 <path transform="matrix(1.7417 -.26574 .26574 1.7417 -210 -130.49)" d="m345.5 313.92c-0.70909 12.572-27.662 19.825-62.09 19.825s-63.115-7.794-63.115-20.386c0-1.574 0.33498-6.1538 1.1654-7.638 4.7116-5.4943 12.208-8.8035 17.869-10.898 11.281-4.1259 26.866-6.6779 44.08-6.6779s32.799 2.5519 44.08 6.6779c5.6405 2.063 10.205 4.5194 13.36 7.2471 1.5772 1.3639 3.8276 4.0891 4.4818 5.732 0.93199 2.3408 0.16887 6.1176 0.16887 6.1176z" fill="url(#o)" stroke="#222b00" stroke-dashoffset="1.2" stroke-linejoin="round" stroke-width=".5"/>
 <path transform="matrix(1.7417 -.26574 .26574 1.7417 -210 -123.59)" d="m345.75 310.94a62.338 22.8 0 1 1 -124.68 0 62.338 22.8 0 1 1 124.68 0z"/>
 <path transform="matrix(1.7417 -.26574 .26574 1.7417 -210 -123.59)" d="m345.75 310.94a62.338 22.8 0 1 1 -124.68 0 62.338 22.8 0 1 1 124.68 0z" fill="url(#p)" stroke="#4d4d4d" stroke-dashoffset="1.2" stroke-linejoin="round" stroke-width=".5"/>
 <path transform="matrix(1.2795 0 0 1.4583 695.11 -275.92)" d="m-191 630.36a61.5 24 0 1 1 -123 0 61.5 24 0 1 1 123 0z" fill="url(#k)" filter="url(#t)" opacity=".33333"/>
 <path transform="matrix(1.5238 0 0 1.5238 400.24 -314.75)" d="m55 551.86a73.5 73.5 0 1 1 -147 0 73.5 73.5 0 1 1 147 0z" fill="#ccc"/>
 <path transform="matrix(1.4558 0 0 1.4558 398.98 -277.21)" d="m55 551.86a73.5 73.5 0 1 1 -147 0 73.5 73.5 0 1 1 147 0z" fill="url(#f)" filter="url(#j)"/>
 <g clip-path="url(#x)">
  <path transform="matrix(.96508 0 0 .96508 389.9 -146.98)" d="m55 551.86c0 40.593-32.907 59.25-73.5 59.25s-73.5-18.657-73.5-59.25 32.907-73.5 73.5-73.5 73.5 32.907 73.5 73.5z" fill="#ccc"/>
  <path transform="matrix(.92199 0 0 .92199 389.1 -125.08)" d="m55 551.86c0 40.593-32.907 62.654-73.5 62.654s-73.5-22.061-73.5-62.654 32.907-73.5 73.5-73.5 73.5 32.907 73.5 73.5z" fill="url(#f)" filter="url(#j)"/>
  <g transform="matrix(.78914 0 0 .78914 80.628 78.113)">
   <path d="m382.37 403.65c-11.402-10.922-3.7695-19.719 4.4304-21.341 7.4439-1.4728 50.735 18.085 49.945 25.156s-51.228-0.79915-54.376-3.8147z" fill="#f60"/>
   <path d="m382.37 403.65c-11.402-10.922-3.7695-19.719 4.4304-21.341 7.4439-1.4728 50.735 18.085 49.945 25.156s-51.228-0.79915-54.376-3.8147z" fill="url(#q)"/>
   <path d="m395.75 383.88c-6.5138 1.3253-9.497 4.7558-10.906 8.9062l0.90625 0.3125c1.3319-3.9226 3.9253-7.0071 10.188-8.2812l-0.1875-0.9375z" filter="url(#u)" opacity=".75"/>
   <path d="m404.16 386.88c-6.299 1.2816-9.1997 4.6114-10.562 8.625l0.875 0.28125c1.2879-3.7932 3.8193-6.7679 9.875-8l-0.1875-0.90625z" filter="url(#v)" opacity=".75"/>
   <path transform="matrix(1.0057 0 0 .98187 -2.3141 7.1406)" d="m411 389.75c-5.6851 1.1567-8.3013 4.1588-9.5312 7.7812l0.78125 0.28125c1.1624-3.4235 3.4407-6.1067 8.9062-7.2188l-0.15625-0.84375z" filter="url(#w)" opacity=".75"/>
   <path d="m396.19 384.03c-6.5445 1.3315-9.5529 4.7987-10.969 8.9688l0.90625 0.3125c1.2148-4.0232 4.9022-7.701 11.554-8.7412z" fill="#ffb380"/>
   <path d="m404.47 387.06c-6.2682 1.2754-9.1439 4.5685-10.5 8.5625l0.875 0.3125c1.1942-3.833 4.6965-7.2424 11.016-8.2728z" fill="#ffb380"/>
   <path d="m411.34 390.03c-5.6806 1.1601-8.3025 4.1802-9.5312 7.8125l0.8125 0.25c1.2293-3.6369 4.6689-6.939 9.9393-7.4848z" fill="#ffb380"/>
  </g>
  <g transform="matrix(.76287 0 0 .76287 -81.513 55.961)">
   <path d="m621.16 481.48c0 4.9264-3.9936 8.92-8.92 8.92s-8.92-3.9936-8.92-8.92 3.9936-8.92 8.92-8.92 8.92 3.9936 8.92 8.92z"/>
   <path transform="matrix(.95956 0 0 .95956 24.761 19.473)" d="m621.16 481.48c0 4.9264-3.9936 8.92-8.92 8.92s-8.92-3.9936-8.92-8.92 3.9936-8.92 8.92-8.92 8.92 3.9936 8.92 8.92z" fill="#8a0" filter="url(#c)"/>
   <path transform="matrix(.74116 0 0 .74116 158.47 124.62)" d="m621.16 481.48c0 4.9264-3.9936 8.92-8.92 8.92s-8.92-3.9936-8.92-8.92 3.9936-8.92 8.92-8.92 8.92 3.9936 8.92 8.92z" filter="url(#b)" opacity=".57692"/>
   <path transform="matrix(.68454 0 0 .68454 193.13 151.89)" d="m621.16 481.48c0 4.9264-3.9936 8.92-8.92 8.92s-8.92-3.9936-8.92-8.92 3.9936-8.92 8.92-8.92 8.92 3.9936 8.92 8.92z" fill="url(#a)"/>
   <path transform="translate(17.749 -11.4)" d="m593.51 490.92c0 0.65749-0.533 1.1905-1.1905 1.1905s-1.1905-0.533-1.1905-1.1905 0.533-1.1905 1.1905-1.1905 1.1905 0.533 1.1905 1.1905z" fill="#fff" stroke="#222b00" stroke-width=".5"/>
   <path transform="translate(21.934 -11.4)" d="m593.51 490.92c0 0.65749-0.533 1.1905-1.1905 1.1905s-1.1905-0.533-1.1905-1.1905 0.533-1.1905 1.1905-1.1905 1.1905 0.533 1.1905 1.1905z" fill="#fff" stroke="#222b00" stroke-width=".5"/>
   <path transform="translate(21.934 -7.648)" d="m593.51 490.92c0 0.65749-0.533 1.1905-1.1905 1.1905s-1.1905-0.533-1.1905-1.1905 0.533-1.1905 1.1905-1.1905 1.1905 0.533 1.1905 1.1905z" fill="#fff" stroke="#222b00" stroke-width=".5"/>
   <path transform="translate(17.821 -7.648)" d="m593.51 490.92c0 0.65749-0.533 1.1905-1.1905 1.1905s-1.1905-0.533-1.1905-1.1905 0.533-1.1905 1.1905-1.1905 1.1905 0.533 1.1905 1.1905z" fill="#fff" stroke="#222b00" stroke-width=".5"/>
  </g>
  <g transform="matrix(.70957 0 0 .70957 -34.278 78.859)">
   <path d="m621.16 481.48c0 4.9264-3.9936 8.92-8.92 8.92s-8.92-3.9936-8.92-8.92 3.9936-8.92 8.92-8.92 8.92 3.9936 8.92 8.92z"/>
   <path transform="matrix(.95956 0 0 .95956 24.761 19.473)" d="m621.16 481.48c0 4.9264-3.9936 8.92-8.92 8.92s-8.92-3.9936-8.92-8.92 3.9936-8.92 8.92-8.92 8.92 3.9936 8.92 8.92z" fill="#8a0" filter="url(#c)"/>
   <path transform="matrix(.74116 0 0 .74116 158.47 124.62)" d="m621.16 481.48c0 4.9264-3.9936 8.92-8.92 8.92s-8.92-3.9936-8.92-8.92 3.9936-8.92 8.92-8.92 8.92 3.9936 8.92 8.92z" filter="url(#b)" opacity=".57692"/>
   <path transform="matrix(.68454 0 0 .68454 193.13 151.89)" d="m621.16 481.48c0 4.9264-3.9936 8.92-8.92 8.92s-8.92-3.9936-8.92-8.92 3.9936-8.92 8.92-8.92 8.92 3.9936 8.92 8.92z" fill="url(#a)"/>
   <path transform="translate(17.749 -11.4)" d="m593.51 490.92c0 0.65749-0.533 1.1905-1.1905 1.1905s-1.1905-0.533-1.1905-1.1905 0.533-1.1905 1.1905-1.1905 1.1905 0.533 1.1905 1.1905z" fill="#fff" stroke="#222b00" stroke-width=".5"/>
   <path transform="translate(21.934 -11.4)" d="m593.51 490.92c0 0.65749-0.533 1.1905-1.1905 1.1905s-1.1905-0.533-1.1905-1.1905 0.533-1.1905 1.1905-1.1905 1.1905 0.533 1.1905 1.1905z" fill="#fff" stroke="#222b00" stroke-width=".5"/>
   <path transform="translate(21.934 -7.648)" d="m593.51 490.92c0 0.65749-0.533 1.1905-1.1905 1.1905s-1.1905-0.533-1.1905-1.1905 0.533-1.1905 1.1905-1.1905 1.1905 0.533 1.1905 1.1905z" fill="#fff" stroke="#222b00" stroke-width=".5"/>
   <path transform="translate(17.821 -7.648)" d="m593.51 490.92c0 0.65749-0.533 1.1905-1.1905 1.1905s-1.1905-0.533-1.1905-1.1905 0.533-1.1905 1.1905-1.1905 1.1905 0.533 1.1905 1.1905z" fill="#fff" stroke="#222b00" stroke-width=".5"/>
  </g>
  <g transform="matrix(.65627 0 0 .65627 10.801 98.899)">
   <path d="m621.16 481.48c0 4.9264-3.9936 8.92-8.92 8.92s-8.92-3.9936-8.92-8.92 3.9936-8.92 8.92-8.92 8.92 3.9936 8.92 8.92z"/>
   <path transform="matrix(.95956 0 0 .95956 24.761 19.473)" d="m621.16 481.48c0 4.9264-3.9936 8.92-8.92 8.92s-8.92-3.9936-8.92-8.92 3.9936-8.92 8.92-8.92 8.92 3.9936 8.92 8.92z" fill="#8a0" filter="url(#c)"/>
   <path transform="matrix(.74116 0 0 .74116 158.47 124.62)" d="m621.16 481.48c0 4.9264-3.9936 8.92-8.92 8.92s-8.92-3.9936-8.92-8.92 3.9936-8.92 8.92-8.92 8.92 3.9936 8.92 8.92z" filter="url(#b)" opacity=".57692"/>
   <path transform="matrix(.68454 0 0 .68454 193.13 151.89)" d="m621.16 481.48c0 4.9264-3.9936 8.92-8.92 8.92s-8.92-3.9936-8.92-8.92 3.9936-8.92 8.92-8.92 8.92 3.9936 8.92 8.92z" fill="url(#a)"/>
   <path transform="translate(17.749 -11.4)" d="m593.51 490.92c0 0.65749-0.533 1.1905-1.1905 1.1905s-1.1905-0.533-1.1905-1.1905 0.533-1.1905 1.1905-1.1905 1.1905 0.533 1.1905 1.1905z" fill="#fff" stroke="#222b00" stroke-width=".5"/>
   <path transform="translate(21.934 -11.4)" d="m593.51 490.92c0 0.65749-0.533 1.1905-1.1905 1.1905s-1.1905-0.533-1.1905-1.1905 0.533-1.1905 1.1905-1.1905 1.1905 0.533 1.1905 1.1905z" fill="#fff" stroke="#222b00" stroke-width=".5"/>
   <path transform="translate(21.934 -7.648)" d="m593.51 490.92c0 0.65749-0.533 1.1905-1.1905 1.1905s-1.1905-0.533-1.1905-1.1905 0.533-1.1905 1.1905-1.1905 1.1905 0.533 1.1905 1.1905z" fill="#fff" stroke="#222b00" stroke-width=".5"/>
   <path transform="translate(17.821 -7.648)" d="m593.51 490.92c0 0.65749-0.533 1.1905-1.1905 1.1905s-1.1905-0.533-1.1905-1.1905 0.533-1.1905 1.1905-1.1905 1.1905 0.533 1.1905 1.1905z" fill="#fff" stroke="#222b00" stroke-width=".5"/>
  </g>
  <g transform="matrix(.76287 0 0 .76287 -96.534 53.104)">
   <path d="m621.16 481.48c0 4.9264-3.9936 8.92-8.92 8.92s-8.92-3.9936-8.92-8.92 3.9936-8.92 8.92-8.92 8.92 3.9936 8.92 8.92z"/>
   <path transform="matrix(.95956 0 0 .95956 24.761 19.473)" d="m621.16 481.48c0 4.9264-3.9936 8.92-8.92 8.92s-8.92-3.9936-8.92-8.92 3.9936-8.92 8.92-8.92 8.92 3.9936 8.92 8.92z" fill="#8a0" filter="url(#c)"/>
   <path transform="matrix(.74116 0 0 .74116 158.47 124.62)" d="m621.16 481.48c0 4.9264-3.9936 8.92-8.92 8.92s-8.92-3.9936-8.92-8.92 3.9936-8.92 8.92-8.92 8.92 3.9936 8.92 8.92z" filter="url(#b)" opacity=".57692"/>
   <path transform="matrix(.68454 0 0 .68454 193.13 151.89)" d="m621.16 481.48c0 4.9264-3.9936 8.92-8.92 8.92s-8.92-3.9936-8.92-8.92 3.9936-8.92 8.92-8.92 8.92 3.9936 8.92 8.92z" fill="url(#a)"/>
   <path transform="translate(17.749 -11.4)" d="m593.51 490.92c0 0.65749-0.533 1.1905-1.1905 1.1905s-1.1905-0.533-1.1905-1.1905 0.533-1.1905 1.1905-1.1905 1.1905 0.533 1.1905 1.1905z" fill="#fff" stroke="#222b00" stroke-width=".5"/>
   <path transform="translate(21.934 -11.4)" d="m593.51 490.92c0 0.65749-0.533 1.1905-1.1905 1.1905s-1.1905-0.533-1.1905-1.1905 0.533-1.1905 1.1905-1.1905 1.1905 0.533 1.1905 1.1905z" fill="#fff" stroke="#222b00" stroke-width=".5"/>
   <path transform="translate(21.934 -7.648)" d="m593.51 490.92c0 0.65749-0.533 1.1905-1.1905 1.1905s-1.1905-0.533-1.1905-1.1905 0.533-1.1905 1.1905-1.1905 1.1905 0.533 1.1905 1.1905z" fill="#fff" stroke="#222b00" stroke-width=".5"/>
   <path transform="translate(17.821 -7.648)" d="m593.51 490.92c0 0.65749-0.533 1.1905-1.1905 1.1905s-1.1905-0.533-1.1905-1.1905 0.533-1.1905 1.1905-1.1905 1.1905 0.533 1.1905 1.1905z" fill="#fff" stroke="#222b00" stroke-width=".5"/>
  </g>
  <g transform="matrix(.81617 0 0 .81617 -143.84 21.228)">
   <path d="m621.16 481.48c0 4.9264-3.9936 8.92-8.92 8.92s-8.92-3.9936-8.92-8.92 3.9936-8.92 8.92-8.92 8.92 3.9936 8.92 8.92z"/>
   <path transform="matrix(.95956 0 0 .95956 24.761 19.473)" d="m621.16 481.48c0 4.9264-3.9936 8.92-8.92 8.92s-8.92-3.9936-8.92-8.92 3.9936-8.92 8.92-8.92 8.92 3.9936 8.92 8.92z" fill="#8a0" filter="url(#c)"/>
   <path transform="matrix(.74116 0 0 .74116 158.47 124.62)" d="m621.16 481.48c0 4.9264-3.9936 8.92-8.92 8.92s-8.92-3.9936-8.92-8.92 3.9936-8.92 8.92-8.92 8.92 3.9936 8.92 8.92z" filter="url(#b)" opacity=".57692"/>
   <path transform="matrix(.68454 0 0 .68454 193.13 151.89)" d="m621.16 481.48c0 4.9264-3.9936 8.92-8.92 8.92s-8.92-3.9936-8.92-8.92 3.9936-8.92 8.92-8.92 8.92 3.9936 8.92 8.92z" fill="url(#a)"/>
   <path transform="translate(17.749 -11.4)" d="m593.51 490.92c0 0.65749-0.533 1.1905-1.1905 1.1905s-1.1905-0.533-1.1905-1.1905 0.533-1.1905 1.1905-1.1905 1.1905 0.533 1.1905 1.1905z" fill="#fff" stroke="#222b00" stroke-width=".5"/>
   <path transform="translate(21.934 -11.4)" d="m593.51 490.92c0 0.65749-0.533 1.1905-1.1905 1.1905s-1.1905-0.533-1.1905-1.1905 0.533-1.1905 1.1905-1.1905 1.1905 0.533 1.1905 1.1905z" fill="#fff" stroke="#222b00" stroke-width=".5"/>
   <path transform="translate(21.934 -7.648)" d="m593.51 490.92c0 0.65749-0.533 1.1905-1.1905 1.1905s-1.1905-0.533-1.1905-1.1905 0.533-1.1905 1.1905-1.1905 1.1905 0.533 1.1905 1.1905z" fill="#fff" stroke="#222b00" stroke-width=".5"/>
   <path transform="translate(17.821 -7.648)" d="m593.51 490.92c0 0.65749-0.533 1.1905-1.1905 1.1905s-1.1905-0.533-1.1905-1.1905 0.533-1.1905 1.1905-1.1905 1.1905 0.533 1.1905 1.1905z" fill="#fff" stroke="#222b00" stroke-width=".5"/>
  </g>
 </g>
 <path transform="matrix(1.0084 0 0 1 -3.5283 .06979)" d="m308.92 355.33c31.227-15.099 69.658-24.299 112.75-20.71" fill="none" filter="url(#s)" opacity=".44231" stroke="#666" stroke-width="4"/>
 <path transform="matrix(.94048 0 0 .94048 -158.41 -37.98)" d="m560.82 433.31a13.292 13.292 0 1 1 -26.585 0 13.292 13.292 0 1 1 26.585 0z" fill="#ccc"/>
 <g transform="matrix(.66926 0 0 .66926 -76.176 82.663)">
  <path d="m661.43 429.84a13.311 13.311 0 1 1 -26.621 0 13.311 13.311 0 1 1 26.621 0z" stroke="#000" stroke-dashoffset="1.2" stroke-linejoin="round" stroke-width="4"/>
  <path d="m661.43 429.84a13.311 13.311 0 1 1 -26.621 0 13.311 13.311 0 1 1 26.621 0z" fill="url(#e)"/>
  <path transform="matrix(.82874 -.55963 .55963 .82874 -97.406 352.1)" d="m582.08 471.81a7.6792 4.6075 0 1 1 -15.358 0 7.6792 4.6075 0 1 1 15.358 0z" fill="url(#g)"/>
 </g>
 <path transform="matrix(.94048 0 0 .94048 -107.14 -42.411)" d="m560.82 433.31a13.292 13.292 0 1 1 -26.585 0 13.292 13.292 0 1 1 26.585 0z" fill="#ccc"/>
 <g transform="matrix(.66926 0 0 .66926 -24.905 78.233)">
  <path d="m661.43 429.84c0 7.3512-5.9594 13.311-13.311 13.311s-13.311-5.9594-13.311-13.311 5.9594-13.311 13.311-13.311 13.311 5.9594 13.311 13.311z" stroke="#000" stroke-dashoffset="1.2" stroke-linejoin="round" stroke-width="4"/>
  <path d="m661.43 429.84c0 7.3512-5.9594 13.311-13.311 13.311s-13.311-5.9594-13.311-13.311 5.9594-13.311 13.311-13.311 13.311 5.9594 13.311 13.311z" fill="url(#e)"/>
  <path transform="matrix(.82874 -.55963 .55963 .82874 -97.406 352.1)" d="m582.08 471.81c0 2.5447-3.4381 4.6075-7.6792 4.6075s-7.6792-2.0629-7.6792-4.6075 3.4381-4.6075 7.6792-4.6075 7.6792 2.0629 7.6792 4.6075z" fill="url(#g)"/>
 </g>
 <path transform="matrix(.88593 .65677 -.47021 1.6193 395.94 -359.17)" d="m137.67 498.98a6.0133 8.7034 0 1 1 -12.027 0 6.0133 8.7034 0 1 1 12.027 0z" fill="url(#l)" filter="url(#r)" opacity=".75"/>
 <path d="m165.29 495.2c10.753 10.306 19.13 27.841 31.64 30.638 14.171 3.169 28.001 2.5607 41.666 0.91121-7.2976-12.12-13.374-23.906-23.502-35.042-3.1434-3.4563-8.1308-1.4817-12.434-2.363 4.2447-0.092 9.1032-3.1838 13.187 0.0131 12.025 9.4131 21.902 23.492 33.429 35.903 10.958-1.6312 21.825-3.4538 32.708-4.1498 2.4659 2.2916 4.1296 5.3855 1.5875 12.685-18.213-1.0812-36.256 0.95543-54.128 0.49536-10.262 7.3422-21.524 17.018-31.497 20.214-4.713 1.5105-9.925-3.6841-14.639-5.5746 4.7992 0.81661 10.171 4.8161 13.868 2.5295 9.738-6.0231 14.403-10.754 20.972-17.831-7.3412-0.72575-14.652-2.0973-21.923-4.4644-13.181-4.291-20.824-22.731-30.935-33.964z" fill-rule="evenodd"/>
 <path transform="matrix(-.93908 .34371 .34371 .93908 547.19 -104.17)" d="m564.58 432.03c-6.5326 13.179-8.3662 32.244-19.114 39.069-12.176 7.7324-25.325 11.854-38.678 14.956 2.6777-13.688 4.3271-26.653 9.9907-40.389 1.7577-4.2632 7.101-4.1251 10.826-6.3983-4.0036 1.3526-9.6089 0.137-12.336 4.4788-8.029 12.784-12.449 29.158-18.985 44.548-10.813 2.2022-21.606 4.1961-32.028 7.238-1.6955 8.2772 4.8284 9.9615 2.8591 12.277 16.673-7.1694 34.254-11.396 50.821-17.875 12.117 3.3188 25.97 8.4579 36.397 8.0378 4.9276-0.19853 8.0257-6.771 11.79-10.117-4.2112 2.3812-7.8684 7.9019-12.111 7.0381-11.175-2.2755-17.161-5.0737-25.732-9.3974 6.6211-3.1581 12.992-6.9034 18.985-11.557 10.864-8.4354 11.701-28.088 17.315-41.909z" fill="#520" fill-rule="evenodd" filter="url(#i)"/>
</svg>
